<?xml version="1.0" encoding="UTF-8"?>
<svg version="1.1" xmlns="http://www.w3.org/2000/svg" width="480" height="480">
<path d="M0 0 C3.27976019 1.39389808 4.33865705 3.22187783 6.5 6.0625 C7.72990765 7.16859144 8.98231375 8.24991698 10.25 9.3125 C13.26800709 11.88339493 15.90828406 14.56263981 18.5 17.5625 C22.18625757 21.82201416 26.2158213 25.42284376 30.5 29.0625 C33 31.375 33 31.375 34.5 33.0625 C34.5 33.7225 34.5 34.3825 34.5 35.0625 C35.16 35.0625 35.82 35.0625 36.5 35.0625 C36.5 35.7225 36.5 36.3825 36.5 37.0625 C37.0775 37.31 37.655 37.5575 38.25 37.8125 C40.87223092 39.26929496 42.59253081 40.74628742 44.5 43.0625 C44.5 47.0625 44.5 47.0625 43.06420898 48.67456055 C42.40235596 49.19832275 41.74050293 49.72208496 41.05859375 50.26171875 C36.28028872 54.20800682 31.93082361 58.48382553 27.5625 62.875 C26.79615234 63.63748047 26.02980469 64.39996094 25.24023438 65.18554688 C24.51255859 65.91451172 23.78488281 66.64347656 23.03515625 67.39453125 C22.379104 68.05171143 21.72305176 68.7088916 21.04711914 69.38598633 C19.41729521 70.99630588 19.41729521 70.99630588 18.5 73.0625 C17.84 73.0625 17.18 73.0625 16.5 73.0625 C16.17 74.0525 15.84 75.0425 15.5 76.0625 C13.828125 77.67578125 13.828125 77.67578125 11.75 79.375 C9.10274661 81.6047654 6.77343584 83.78550921 4.625 86.5 C3.92375 87.345625 3.2225 88.19125 2.5 89.0625 C1.84 89.0625 1.18 89.0625 0.5 89.0625 C0.5 89.7225 0.5 90.3825 0.5 91.0625 C-1.07421875 92.578125 -1.07421875 92.578125 -3.1875 94.3125 C-5.85349133 96.56325728 -8.21010091 98.76299545 -10.375 101.5 C-11.07625 102.345625 -11.7775 103.19125 -12.5 104.0625 C-13.16 104.0625 -13.82 104.0625 -14.5 104.0625 C-14.83 105.0525 -15.16 106.0425 -15.5 107.0625 C-17.1015625 108.60546875 -17.1015625 108.60546875 -19.125 110.25 C-22.01614633 112.69358453 -24.56089318 115.16816817 -27 118.0625 C-29.95612058 121.55855128 -33.17588188 124.46046895 -36.6640625 127.4140625 C-38.72102401 129.18141198 -38.72102401 129.18141198 -41 132.0625 C-43.03761745 134.50764094 -44.90635696 136.34262676 -47.3125 138.375 C-51.08813317 141.58393401 -54.25007714 145.11573889 -57.484375 148.859375 C-60.05058506 151.66430227 -62.86584511 154.06542339 -65.765625 156.515625 C-67.65625549 158.11521408 -67.65625549 158.11521408 -69.5 160.5625 C-72.41203864 164.20254831 -75.9435344 167.06712728 -79.5 170.0625 C-78.95982088 174.03281653 -77.09261026 175.78446006 -74.25 178.5 C-73.48171875 179.24121094 -72.7134375 179.98242188 -71.921875 180.74609375 C-71.12265625 181.51050781 -70.3234375 182.27492187 -69.5 183.0625 C-67.82939789 184.72522191 -66.16278921 186.39196488 -64.5 188.0625 C-63.675 188.8875 -62.85 189.7125 -62 190.5625 C-27.16666667 225.39583333 7.66666667 260.22916667 42.5 295.0625 C42.2237412 298.82378443 40.25783908 300.69426322 37.6862793 303.29614258 C36.87841476 304.11991898 36.07055023 304.94369537 35.23820496 305.79243469 C34.35908951 306.67175156 33.47997406 307.55106842 32.57421875 308.45703125 C31.67508255 309.36378098 30.77594635 310.2705307 29.8495636 311.20475769 C27.94587495 313.11925543 26.03919535 315.03014329 24.12719727 316.9362793 C21.67543502 319.38213221 19.24245089 321.84577645 16.81392193 324.31467152 C14.49542908 326.66518197 12.15881902 328.99753525 9.82421875 331.33203125 C8.95117599 332.22146927 8.07813324 333.11090729 7.17863464 334.02729797 C6.36131363 334.83531357 5.54399261 335.64332916 4.7019043 336.47583008 C3.98544235 337.19434647 3.26898041 337.91286285 2.5308075 338.65315247 C0.5 340.0625 0.5 340.0625 -1.61297607 339.91601562 C-4.50874814 338.60623536 -6.31676627 336.5597074 -8.52734375 334.29296875 C-8.99813858 333.8155574 -9.46893341 333.33814606 -9.95399475 332.8462677 C-11.45577957 331.32112803 -12.94704732 329.78620902 -14.4375 328.25 C-15.92602578 326.72623427 -17.41672319 325.2046888 -18.91029358 323.68586731 C-20.26998435 322.30159131 -21.62332889 320.91109023 -22.97631836 319.52026367 C-25.44211107 317.03877917 -25.44211107 317.03877917 -28.12182617 314.96704102 C-30.28486384 313.23479003 -31.94812794 311.54534876 -33.7109375 309.421875 C-37.94384801 304.47622212 -42.5131186 299.9027632 -47.125 295.3125 C-47.95773438 294.47589844 -48.79046875 293.63929688 -49.6484375 292.77734375 C-50.86273438 291.56498047 -50.86273438 291.56498047 -52.1015625 290.328125 C-52.82682129 289.60399414 -53.55208008 288.87986328 -54.29931641 288.13378906 C-56.50372862 286.00012422 -56.50372862 286.00012422 -59.07421875 284.0234375 C-61.24775435 282.26640872 -62.93353706 280.56292487 -64.7109375 278.421875 C-68.94384801 273.47622212 -73.5131186 268.9027632 -78.125 264.3125 C-78.95773438 263.47589844 -79.79046875 262.63929688 -80.6484375 261.77734375 C-81.86273438 260.56498047 -81.86273438 260.56498047 -83.1015625 259.328125 C-83.82682129 258.60399414 -84.55208008 257.87986328 -85.29931641 257.13378906 C-87.50372862 255.00012422 -87.50372862 255.00012422 -90.07421875 253.0234375 C-92.24775435 251.26640872 -93.93353706 249.56292487 -95.7109375 247.421875 C-99.94384801 242.47622212 -104.5131186 237.9027632 -109.125 233.3125 C-109.95773438 232.47589844 -110.79046875 231.63929688 -111.6484375 230.77734375 C-112.45796875 229.96910156 -113.2675 229.16085937 -114.1015625 228.328125 C-114.82682129 227.60399414 -115.55208008 226.87986328 -116.29931641 226.13378906 C-118.50372862 224.00012422 -118.50372862 224.00012422 -121.07421875 222.0234375 C-123.24775435 220.26640872 -124.93353706 218.56292487 -126.7109375 216.421875 C-130.94384801 211.47622212 -135.5131186 206.9027632 -140.125 202.3125 C-140.95773438 201.47589844 -141.79046875 200.63929688 -142.6484375 199.77734375 C-143.45796875 198.96910156 -144.2675 198.16085937 -145.1015625 197.328125 C-145.82682129 196.60399414 -146.55208008 195.87986328 -147.29931641 195.13378906 C-149.60138116 192.96707979 -152.02302366 191.02466195 -154.5 189.0625 C-155.5972291 187.88561258 -156.66158081 186.67704246 -157.6875 185.4375 C-162.01193025 180.36681852 -166.74766376 175.72877783 -171.5 171.0625 C-171.17 170.0725 -170.84 169.0825 -170.5 168.0625 C-169.84 168.0625 -169.18 168.0625 -168.5 168.0625 C-168.17 167.0725 -167.84 166.0825 -167.5 165.0625 C-166.84 165.0625 -166.18 165.0625 -165.5 165.0625 C-165.26732422 164.50530273 -165.03464844 163.94810547 -164.79492188 163.37402344 C-163.16430607 160.46326355 -161.13760806 158.44068867 -158.78125 156.078125 C-157.84925781 155.14355469 -156.91726562 154.20898438 -155.95703125 153.24609375 C-155.2292749 152.52462158 -155.2292749 152.52462158 -154.48681641 151.78857422 C-152.99793661 150.31045152 -151.52008349 148.82190089 -150.04296875 147.33203125 C-149.11097656 146.40261719 -148.17898437 145.47320312 -147.21875 144.515625 C-146.36216797 143.66129883 -145.50558594 142.80697266 -144.62304688 141.92675781 C-142.5 140.0625 -142.5 140.0625 -140.5 140.0625 C-140.17 139.0725 -139.84 138.0825 -139.5 137.0625 C-138.84 137.0625 -138.18 137.0625 -137.5 137.0625 C-137.17 136.0725 -136.84 135.0825 -136.5 134.0625 C-135.84 134.0625 -135.18 134.0625 -134.5 134.0625 C-134.23461426 133.47245178 -133.96922852 132.88240356 -133.69580078 132.2744751 C-132.46474737 129.99729019 -131.18937484 128.49828188 -129.3671875 126.67089844 C-128.41610107 125.71035553 -128.41610107 125.71035553 -127.44580078 124.73040771 C-126.76243652 124.05109192 -126.07907227 123.37177612 -125.375 122.671875 C-124.6722998 121.96726135 -123.96959961 121.26264771 -123.24560547 120.53668213 C-121.76189896 119.05161647 -120.27567108 117.56906619 -118.78710938 116.08886719 C-116.50156409 113.81405675 -114.22690983 111.5287464 -111.953125 109.2421875 C-110.51105781 107.80144132 -109.06837065 106.36131535 -107.625 104.921875 C-106.94163574 104.23446228 -106.25827148 103.54704956 -105.55419922 102.83880615 C-104.9201416 102.21105286 -104.28608398 101.58329956 -103.6328125 100.93652344 C-103.07480957 100.38011169 -102.51680664 99.82369995 -101.94189453 99.25042725 C-100.5 98.0625 -100.5 98.0625 -98.5 98.0625 C-98.23574219 97.4737207 -97.97148437 96.88494141 -97.69921875 96.27832031 C-96.45631056 93.98177416 -95.14993519 92.45416834 -93.3125 90.609375 C-92.69632812 89.990625 -92.08015625 89.371875 -91.4453125 88.734375 C-90.80335938 88.10015625 -90.16140625 87.4659375 -89.5 86.8125 C-88.53707031 85.83796875 -88.53707031 85.83796875 -87.5546875 84.84375 C-86.93851562 84.23015625 -86.32234375 83.6165625 -85.6875 82.984375 C-85.12417969 82.42331055 -84.56085938 81.86224609 -83.98046875 81.28417969 C-82.5 80.0625 -82.5 80.0625 -80.5 80.0625 C-80.24597412 79.48381165 -79.99194824 78.90512329 -79.73022461 78.30889893 C-78.36145406 75.80951413 -76.82778141 74.13630805 -74.81640625 72.12011719 C-74.06222412 71.35963074 -73.30804199 70.59914429 -72.53100586 69.81561279 C-71.30909546 68.59977509 -71.30909546 68.59977509 -70.0625 67.359375 C-69.22662354 66.52158508 -68.39074707 65.68379517 -67.52954102 64.82061768 C-65.76336443 63.05308097 -63.99466312 61.28806398 -62.22363281 59.52539062 C-59.50353119 56.81601726 -56.79428001 54.09612235 -54.0859375 51.375 C-52.37043283 49.66081643 -50.65430814 47.9472531 -48.9375 46.234375 C-47.7155896 45.00639191 -47.7155896 45.00639191 -46.46899414 43.75360107 C-45.33772095 42.63178436 -45.33772095 42.63178436 -44.18359375 41.48730469 C-43.51900146 40.82430359 -42.85440918 40.16130249 -42.16967773 39.47821045 C-40.5 38.0625 -40.5 38.0625 -38.5 38.0625 C-38.18482422 37.26054199 -38.18482422 37.26054199 -37.86328125 36.44238281 C-35.97038985 33.1379585 -33.36934474 30.64655497 -30.6875 27.984375 C-29.83321411 27.12721893 -29.83321411 27.12721893 -28.96166992 26.25274658 C-27.7604332 25.05015211 -26.55668003 23.85006666 -25.35058594 22.65234375 C-23.49959045 20.81209283 -21.65954554 18.96137367 -19.8203125 17.109375 C-18.65168276 15.94206616 -17.48243316 14.77537749 -16.3125 13.609375 C-15.76037842 13.05320496 -15.20825684 12.49703491 -14.6394043 11.92401123 C-10.72993635 8.0625 -10.72993635 8.0625 -8.5 8.0625 C-8.2525 7.485 -8.005 6.9075 -7.75 6.3125 C-5.80495084 2.81141152 -4.2402726 0.10600682 0 0 Z " fill="#FDFDFD" transform="translate(248.5,69.9375)"/>
<path d="M0 0 C5.55750013 2.41021186 9.26067823 7.30261612 13.08496094 11.80078125 C14.9260216 13.82827844 16.84667725 15.57275373 18.93652344 17.33984375 C22.42360912 20.28838338 25.32201798 23.49453383 28.26074219 26.98046875 C29.86302446 28.75829243 31.50470048 30.22638987 33.37402344 31.71484375 C34.21964844 32.41609375 35.06527344 33.11734375 35.93652344 33.83984375 C35.93652344 34.49984375 35.93652344 35.15984375 35.93652344 35.83984375 C36.59652344 35.83984375 37.25652344 35.83984375 37.93652344 35.83984375 C39.34667969 37.30859375 39.34667969 37.30859375 40.99902344 39.33984375 C43.63223376 42.4493312 46.34979508 45.18050855 49.43652344 47.83984375 C60.86402021 57.78020053 60.86402021 57.78020053 61.93652344 63.83984375 C61.23527344 64.35546875 60.53402344 64.87109375 59.81152344 65.40234375 C57.58376644 67.29109425 55.94877319 68.93264816 54.12402344 71.15234375 C51.95878527 73.75946726 49.71690252 75.97103277 47.12402344 78.15234375 C43.03427417 81.61650995 39.59224174 85.5087758 36.05761719 89.52734375 C33.53088576 92.28208593 30.89454677 94.56444119 27.93652344 96.83984375 C19.70055693 93.3294318 13.16198656 85.33583607 7.50683594 78.6015625 C5.20896801 76.0236062 2.65534133 73.96184796 -0.06347656 71.83984375 C-3.99135887 73.42822778 -6.61691334 76.13646429 -9.52832031 79.109375 C-10.30110069 79.88640022 -10.30110069 79.88640022 -11.0894928 80.67912292 C-12.73142606 82.3322109 -14.36627675 83.99210552 -16.00097656 85.65234375 C-17.09621465 86.75762246 -18.19191327 87.86244503 -19.28808594 88.96679688 C-21.31366587 91.0086576 -23.33646599 93.05318844 -25.35620117 95.10083008 C-27.91566786 97.69030223 -30.4865039 100.26780624 -33.06347656 102.83984375 C-33.82660156 103.60296875 -34.58972656 104.36609375 -35.37597656 105.15234375 C-35.93285156 105.70921875 -36.48972656 106.26609375 -37.06347656 106.83984375 C-36.73347656 107.82984375 -36.40347656 108.81984375 -36.06347656 109.83984375 C-35.40347656 109.83984375 -34.74347656 109.83984375 -34.06347656 109.83984375 C-30.37619482 113.22815671 -27.26376518 116.9994974 -24.06347656 120.83984375 C-22.40820551 122.51782864 -20.73973532 124.1828247 -19.06347656 125.83984375 C-18.07192967 126.83006725 -17.08106479 127.82097406 -16.09082031 128.8125 C-15.58357422 129.31974609 -15.07632813 129.82699219 -14.55371094 130.34960938 C-13.00358073 131.89973958 -11.45345052 133.44986979 -9.90332031 135 C-9.41460449 135.48227051 -8.92588867 135.96454102 -8.42236328 136.46142578 C-7.2144834 137.68666649 -6.07284532 138.97642435 -4.94238281 140.2734375 C-3.21758449 142.05685507 -3.21758449 142.05685507 -1.08300781 141.8125 C5.45421802 138.66401019 10.47245693 132.37078521 15.11230469 126.94140625 C17.23147227 124.50005259 19.39864363 122.12252377 21.62402344 119.77734375 C22.34976563 119.00261719 23.07550781 118.22789062 23.82324219 117.4296875 C25.93652344 115.83984375 25.93652344 115.83984375 27.87402344 115.77734375 C30.88783345 117.32991254 32.88950606 119.47607906 35.24902344 121.90234375 C35.73540283 122.39895508 36.22178223 122.89556641 36.72290039 123.40722656 C39.4563101 126.22091062 42.0782384 129.10411891 44.62402344 132.08984375 C47.51845711 135.48403575 50.68683504 138.35512884 54.07714844 141.24609375 C57.84774757 144.47803586 60.83160514 147.33607713 62.93652344 151.83984375 C62.50082031 152.19175781 62.06511719 152.54367187 61.61621094 152.90625 C58.46871046 155.51554152 55.59725013 158.11366277 52.99902344 161.27734375 C50.86093999 163.86913191 48.6290868 166.04768013 46.06152344 168.21484375 C43.08172669 170.74143948 40.4914435 173.38415191 37.93652344 176.33984375 C34.79575167 179.9732856 31.46732675 183.06675301 27.80371094 186.16015625 C25.9956651 187.786641 24.47929342 189.46350187 22.93652344 191.33984375 C20.82090223 193.91289657 18.60693676 196.0656037 16.06152344 198.21484375 C12.24491058 201.4465351 9.02281771 205.01058688 5.79589844 208.82421875 C3.93076309 210.84608816 2.31810037 212.455206 -0.06347656 213.83984375 C-3.40308878 213.42223307 -5.02969145 212.2346233 -7.34082031 209.85546875 C-7.93701172 209.24960937 -8.53320312 208.64375 -9.14746094 208.01953125 C-9.75912109 207.38273438 -10.37078125 206.7459375 -11.00097656 206.08984375 C-11.60876953 205.46851563 -12.2165625 204.8471875 -12.84277344 204.20703125 C-13.9901004 203.03371307 -15.1342986 201.85732043 -16.27416992 200.67675781 C-18.51556856 198.37572311 -20.7892363 196.10842305 -23.06347656 193.83984375 C-78.06347656 138.83984375 -78.06347656 138.83984375 -80.56616211 136.33276367 C-82.79993026 134.10292629 -85.0422856 131.88212505 -87.28913879 129.66548157 C-89.42795425 127.55354937 -91.56133744 125.43616285 -93.69458008 123.31860352 C-94.82271427 122.20062531 -95.95262199 121.08443412 -97.08422852 119.9699707 C-98.72391414 118.3544155 -100.35716725 116.73259799 -101.98925781 115.109375 C-102.49854324 114.61041214 -103.00782867 114.11144928 -103.532547 113.59736633 C-104.74807363 112.38223513 -105.91129822 111.11520014 -107.06347656 109.83984375 C-107.06347656 109.17984375 -107.06347656 108.51984375 -107.06347656 107.83984375 C-107.72347656 107.50984375 -108.38347656 107.17984375 -109.06347656 106.83984375 C-108.66517262 106.4424616 -108.26686867 106.04507944 -107.8564949 105.6356554 C-98.15508609 95.95635237 -88.45649465 86.27423417 -78.76091385 76.58909321 C-74.07207875 71.90547651 -69.38231802 67.22279455 -64.69042969 62.54223633 C-60.16248673 58.02515922 -55.63699138 53.50564327 -51.11318207 48.9844265 C-49.38689862 47.25999062 -47.6597353 45.53643509 -45.93167877 43.81377602 C-43.51136155 41.40071822 -41.09419244 38.98454848 -38.67773438 36.56762695 C-37.60526962 35.50055511 -37.60526962 35.50055511 -36.51113892 34.41192627 C-33.13388754 31.02765983 -29.98967918 27.63173826 -27.06347656 23.83984375 C-25.86032031 22.72194045 -24.62587239 21.63662443 -23.36035156 20.58984375 C-20.31709446 17.98939606 -17.48096221 15.28591128 -14.70410156 12.40234375 C-13.9809375 11.65339844 -13.25777344 10.90445313 -12.51269531 10.1328125 C-11.02343428 8.5800661 -9.54185981 7.01991708 -8.06738281 5.453125 C-7.349375 4.71449219 -6.63136719 3.97585937 -5.89160156 3.21484375 C-5.25125977 2.54195312 -4.61091797 1.8690625 -3.95117188 1.17578125 C-2.06347656 -0.16015625 -2.06347656 -0.16015625 0 0 Z " fill="#FDFCFC" transform="translate(319.0634765625,133.16015625)"/>
<path d="M0 0 C0.99 0 1.98 0 3 0 C3.43699219 0.99580078 3.43699219 0.99580078 3.8828125 2.01171875 C7.08439877 8.90821748 9.78375913 13.07519439 16.875 16.3125 C17.57625 16.539375 18.2775 16.76625 19 17 C19 17.66 19 18.32 19 19 C18.48050781 19.21914062 17.96101563 19.43828125 17.42578125 19.6640625 C9.65615113 23.19701815 5.98327817 28.14926798 3 36 C2.01 36 1.02 36 0 36 C-0.27972656 35.34773438 -0.55945313 34.69546875 -0.84765625 34.0234375 C-3.59650352 28.03077367 -6.38217866 23.60765304 -12 20 C-12.99 19.67 -13.98 19.34 -15 19 C-15 18.34 -15 17.68 -15 17 C-8.25 13 -8.25 13 -6 13 C-5.7525 12.34 -5.505 11.68 -5.25 11 C-3.68182955 7.23639093 -1.85494954 3.6288576 0 0 Z " fill="#FAF8F8" transform="translate(383,222)"/>
<path d="M0 0 C0 3 0 3 -2.59765625 5.85546875 C-3.74525163 6.97374113 -4.90057866 8.08412016 -6.0625 9.1875 C-9.66888854 12.65311103 -13.16931939 16.13163858 -16.4375 19.921875 C-20.09015227 24.1577709 -23.97230384 28.12024615 -27.9375 32.0625 C-28.93426758 33.06506836 -28.93426758 33.06506836 -29.95117188 34.08789062 C-33.9091357 38.03817653 -37.98378757 41.78683846 -42.21704102 45.43969727 C-44.40315527 47.35280916 -46.46445755 49.36560857 -48.5 51.4375 C-49.50546875 52.45650391 -49.50546875 52.45650391 -50.53125 53.49609375 C-51.0159375 53.99238281 -51.500625 54.48867187 -52 55 C-52 52 -52 52 -50.01220703 49.63989258 C-49.10325684 48.73392334 -48.19430664 47.8279541 -47.2578125 46.89453125 C-46.77424286 46.4104631 -46.29067322 45.92639496 -45.79244995 45.42765808 C-44.76870408 44.40625264 -43.74126366 43.38853888 -42.71044922 42.37426758 C-41.12937837 40.81681297 -39.5620688 39.24644492 -37.99609375 37.67382812 C-30.27903345 30 -30.27903345 30 -28 30 C-27.67 29.01 -27.34 28.02 -27 27 C-26.34 27 -25.68 27 -25 27 C-24.67 26.01 -24.34 25.02 -24 24 C-23.34 24 -22.68 24 -22 24 C-21.7642627 23.43829102 -21.52852539 22.87658203 -21.28564453 22.29785156 C-19.69599628 19.45664964 -17.74656724 17.52192715 -15.4296875 15.234375 C-14.53378906 14.34492188 -13.63789062 13.45546875 -12.71484375 12.5390625 C-11.77769531 11.61867187 -10.84054688 10.69828125 -9.875 9.75 C-8.92011363 8.80515144 -7.96568141 7.85984367 -7.01171875 6.9140625 C-4.67890913 4.60481662 -2.34155914 2.30036797 0 0 Z " fill="#E3E0E0" transform="translate(136,180)"/>
<path d="M0 0 C2.375 1 2.375 1 3.6875 3.0625 C4.0278125 4.0215625 4.0278125 4.0215625 4.375 5 C3.055 4.01 1.735 3.02 0.375 2 C-3.27648915 3.49825676 -5.21541744 5.57431133 -7.75 8.5625 C-11.50328865 12.83978674 -15.445207 16.60545044 -19.71875 20.3515625 C-25.91287463 25.99620833 -31.73889707 32.03722439 -37.625 38 C-37.625 34.17283102 -36.15387096 33.16793462 -33.5597229 30.54353333 C-32.97540497 29.96842514 -32.39108704 29.39331696 -31.7890625 28.80078125 C-31.19451263 28.20573288 -30.59996277 27.61068451 -29.98739624 26.99760437 C-28.7282594 25.74080931 -27.46542502 24.4877095 -26.19921875 23.23803711 C-24.25603431 21.31846099 -22.32652297 19.38590083 -20.3984375 17.45117188 C-19.17526985 16.23358018 -17.95133695 15.01675665 -16.7265625 13.80078125 C-16.14629303 13.21960037 -15.56602356 12.63841949 -14.96817017 12.03962708 C-10.85601073 8 -10.85601073 8 -8.625 8 C-8.3775 7.4225 -8.13 6.845 -7.875 6.25 C-5.88252034 2.66353661 -4.34290526 0 0 0 Z " fill="#E2DEDF" transform="translate(248.625,70)"/>
<path d="M0 0 C0.66 0.33 1.32 0.66 2 1 C1.43152344 1.556875 0.86304688 2.11375 0.27734375 2.6875 C-3.37633642 6.29848274 -6.98301942 9.89788793 -10.3125 13.8125 C-15.20356471 19.52646896 -20.64602159 24.72514443 -26 30 C-26.99 29.67 -27.98 29.34 -29 29 C-27.21427748 27.16052663 -25.42197551 25.32842259 -23.625 23.5 C-23.11710938 22.97535156 -22.60921875 22.45070312 -22.0859375 21.91015625 C-20.76167396 20.56846819 -19.38394135 19.28004185 -18 18 C-17.34 18 -16.68 18 -16 18 C-15.73719238 17.4112207 -15.47438477 16.82244141 -15.20361328 16.21582031 C-13.94383819 13.89660759 -12.61995979 12.39050597 -10.7421875 10.546875 C-10.11699219 9.928125 -9.49179688 9.309375 -8.84765625 8.671875 C-8.19667969 8.03765625 -7.54570312 7.4034375 -6.875 6.75 C-6.21628906 6.1003125 -5.55757812 5.450625 -4.87890625 4.78125 C-3.25703357 3.18288273 -1.6306719 1.58938103 0 0 Z " fill="#E3E1E0" transform="translate(166,150)"/>
<path d="M0 0 C2.8552043 1.20386268 4.55099056 3.15230379 6.68164062 5.37695312 C7.48085938 6.20324219 8.28007812 7.02953125 9.10351562 7.88085938 C9.70679688 8.51894531 10.31007813 9.15703125 10.93164062 9.81445312 C7.93164062 9.81445312 7.93164062 9.81445312 6.10742188 8.28320312 C5.49253906 7.63351562 4.87765625 6.98382813 4.24414062 6.31445312 C3.62152344 5.66476563 2.99890625 5.01507813 2.35742188 4.34570312 C1.88691406 3.84039062 1.41640625 3.33507812 0.93164062 2.81445312 C-5.21488124 4.86329375 -8.54359182 10.67836326 -12.06835938 15.81445312 C-13.38835937 15.15445312 -14.70835937 14.49445313 -16.06835938 13.81445312 C-13.83884189 11.44013284 -11.58176737 9.09395168 -9.31835938 6.75195312 C-8.68414062 6.07583984 -8.04992187 5.39972656 -7.39648438 4.703125 C-6.77773438 4.06826172 -6.15898437 3.43339844 -5.52148438 2.77929688 C-4.9559082 2.18753662 -4.39033203 1.59577637 -3.80761719 0.98608398 C-2.06835938 -0.18554688 -2.06835938 -0.18554688 0 0 Z " fill="#DFDCDB" transform="translate(347.068359375,249.185546875)"/>
<path d="M0 0 C0.66 0.99 1.32 1.98 2 3 C1.46890625 3.45890625 0.9378125 3.9178125 0.390625 4.390625 C-4.12837031 8.3158837 -8.42085957 12.30242404 -12.5 16.6875 C-14.96635647 18.96887973 -15.86395005 19.3953802 -19 20 C-13.17371096 12.84198775 -6.5617015 6.47408234 0 0 Z " fill="#E7E2E4" transform="translate(234,216)"/>
<path d="M0 0 C0.66 0.99 1.32 1.98 2 3 C1.56429688 3.35191406 1.12859375 3.70382813 0.6796875 4.06640625 C-2.59960841 6.78495675 -5.47319105 9.4701158 -8.125 12.8125 C-10.1353407 15.26598031 -10.75533512 15.92021797 -13.875 16.9375 C-14.57625 16.958125 -15.2775 16.97875 -16 17 C-15.61328125 16.55269531 -15.2265625 16.10539062 -14.828125 15.64453125 C-12.48768743 12.92753813 -10.1741104 10.2285199 -8 7.375 C-5.57620186 4.49673971 -2.94286558 2.3409158 0 0 Z " fill="#EDE9EB" transform="translate(295,155)"/>
<path d="M0 0 C4.21228561 1.56010578 6.34546845 4.4845393 9 8 C9.33 8.99 9.66 9.98 10 11 C10.66 11.33 11.32 11.66 12 12 C12.12375 11.195625 12.2475 10.39125 12.375 9.5625 C12.58125 8.716875 12.7875 7.87125 13 7 C13.66 6.67 14.32 6.34 15 6 C14.01 8.97 13.02 11.94 12 15 C11.01 15 10.02 15 9 15 C8.68546875 14.33613281 8.3709375 13.67226563 8.046875 12.98828125 C5.74698951 8.24303558 3.55857132 3.95396814 0 0 Z " fill="#C4BEBF" transform="translate(374,243)"/>
<path d="M0 0 C0.66 0.66 1.32 1.32 2 2 C1.01 2.66 0.02 3.32 -1 4 C-1 1 -1 1 0 0 Z M-14 14 C-14 17 -14 17 -15.3125 18.38671875 C-16.875 19.59114583 -18.4375 20.79557292 -20 22 C-20 20.68 -20 19.36 -20 18 C-19.34 18 -18.68 18 -18 18 C-17.67 17.01 -17.34 16.02 -17 15 C-16.01 14.67 -15.02 14.34 -14 14 Z " fill="#F5F4F3" transform="translate(98,220)"/>
<path d="M0 0 C0.33 0.99 0.66 1.98 1 3 C-0.6955971 4.6955971 -2.41484737 6.21243969 -4.25 7.75 C-7.68376669 10.67266096 -10.85087717 13.77406929 -14 17 C-14.66 16.67 -15.32 16.34 -16 16 C-10.72 10.72 -5.44 5.44 0 0 Z " fill="#E7E2E3" transform="translate(312,138)"/>
<path d="M0 0 C0.99 0 1.98 0 3 0 C3.33 1.65 3.66 3.3 4 5 C3.01 4.67 2.02 4.34 1 4 C0.49339844 4.84884766 0.49339844 4.84884766 -0.0234375 5.71484375 C-0.46945312 6.44832031 -0.91546875 7.18179688 -1.375 7.9375 C-1.81585938 8.66839844 -2.25671875 9.39929688 -2.7109375 10.15234375 C-4 12 -4 12 -6 13 C-4.31326082 8.50202887 -2.18326108 4.27113698 0 0 Z " fill="#C6C0C1" transform="translate(383,222)"/>
<path d="M0 0 C4.37859255 0.50522222 6.81651224 3.17827222 10 6 C9.67 6.66 9.34 7.32 9 8 C8.113125 7.175 7.22625 6.35 6.3125 5.5 C3.98692593 3.53900524 3.25212806 3.02740522 0.125 2.6875 C-0.57625 2.790625 -1.2775 2.89375 -2 3 C-1.34 2.01 -0.68 1.02 0 0 Z " fill="#E0D9D8" transform="translate(317,133)"/>
<path d="M0 0 C0.66 0.99 1.32 1.98 2 3 C0.35 4.32 -1.3 5.64 -3 7 C-3.66 6.67 -4.32 6.34 -5 6 C-5 6.66 -5 7.32 -5 8 C-5.66 7.67 -6.32 7.34 -7 7 C-4.78071806 4.09197539 -3.07030857 2.04687238 0 0 Z " fill="#E6E1E2" transform="translate(295,155)"/>
<path d="M0 0 C6.57142857 4 6.57142857 4 8 8 C4.63820226 6.55922954 2.40843732 4.75249979 0 2 C0 1.34 0 0.68 0 0 Z " fill="#E3DFDE" transform="translate(367,181)"/>
</svg>
