<?xml version="1.0" standalone="no"?>
<!DOCTYPE svg PUBLIC "-//W3C//DTD SVG 20010904//EN"
 "http://www.w3.org/TR/2001/REC-SVG-20010904/DTD/svg10.dtd">
<svg version="1.0" xmlns="http://www.w3.org/2000/svg"
 width="480.000000pt" height="480.000000pt" viewBox="0 0 480.000000 480.000000"
 preserveAspectRatio="xMidYMid meet">

<g transform="translate(0.000000,480.000000) scale(0.100000,-0.100000)"
fill="#000000" stroke="none">
<path d="M0 2400 l0 -2400 2400 0 2400 0 0 2400 0 2400 -2400 0 -2400 0 0
-2400z m2708 1477 l222 -222 -635 -635 -635 -635 625 -625 625 -625 -218 -218
-217 -217 -843 842 c-463 464 -845 847 -849 851 -6 7 1684 1707 1697 1707 3
-1 105 -101 228 -223z m1092 -1032 c0 -6 -76 -86 -169 -179 l-170 -169 -118
119 c-65 65 -128 128 -141 138 l-22 19 -187 -187 -186 -188 186 -186 187 -187
143 143 142 142 175 -175 175 -175 -318 -317 -317 -318 -535 535 -535 535 537
537 538 538 307 -307 c170 -170 308 -312 308 -318z m66 -312 c22 -45 72 -96
113 -114 37 -17 39 -25 7 -33 -33 -8 -105 -81 -123 -124 l-15 -37 -20 40 c-27
53 -65 92 -112 117 l-39 20 39 17 c44 20 94 72 113 119 7 18 15 32 17 32 2 0
11 -16 20 -37z"/>
</g>
</svg>
